<?xml version="1.0" encoding="utf-8"?>
<svg xmlns="http://www.w3.org/2000/svg">
    <defs>
        <symbol id="home">
            <path fill-rule="evenodd" clip-rule="evenodd" d="M11.3861 1.21065C11.7472 0.929784 12.2528 0.929784 12.6139 1.21065L21.6139 8.21065C21.8575 8.4001 22 8.69141 22 9V20C22 20.7957 21.6839 21.5587 21.1213 22.1213C20.5587 22.6839 19.7957 23 19 23H5C4.20435 23 3.44129 22.6839 2.87868 22.1213C2.31607 21.5587 2 20.7957 2 20V9C2 8.69141 2.14247 8.4001 2.38606 8.21065L11.3861 1.21065ZM4 9.48908V20C4 20.2652 4.10536 20.5196 4.29289 20.7071C4.48043 20.8946 4.73478 21 5 21H19C19.2652 21 19.5196 20.8946 19.7071 20.7071C19.8946 20.5196 20 20.2652 20 20V9.48908L12 3.26686L4 9.48908Z" fill="#212429" />
            <path fill-rule="evenodd" clip-rule="evenodd" d="M8 12C8 11.4477 8.44772 11 9 11H15C15.5523 11 16 11.4477 16 12V22C16 22.5523 15.5523 23 15 23C14.4477 23 14 22.5523 14 22V13H10V22C10 22.5523 9.55228 23 9 23C8.44772 23 8 22.5523 8 22V12Z" fill="#212429" />
        </symbol>

        <symbol id="arrow">
            <path fill-rule="evenodd" clip-rule="evenodd" d="M0.292893 0.292893C0.683417 -0.0976311 1.31658 -0.0976311 1.70711 0.292893L9 7.58579L16.2929 0.292893C16.6834 -0.0976311 17.3166 -0.0976311 17.7071 0.292893C18.0976 0.683417 18.0976 1.31658 17.7071 1.70711L9.70711 9.70711C9.31658 10.0976 8.68342 10.0976 8.29289 9.70711L0.292893 1.70711C-0.0976311 1.31658 -0.0976311 0.683417 0.292893 0.292893Z" fill="currentColor" />
        </symbol>

        <symbol id="help">
            <path fill-rule="evenodd" clip-rule="evenodd" d="M12 3C7.02944 3 3 7.02944 3 12C3 16.9706 7.02944 21 12 21C16.9706 21 21 16.9706 21 12C21 7.02944 16.9706 3 12 3ZM1 12C1 5.92487 5.92487 1 12 1C18.0751 1 23 5.92487 23 12C23 18.0751 18.0751 23 12 23C5.92487 23 1 18.0751 1 12Z" fill="currentColor" />
            <path fill-rule="evenodd" clip-rule="evenodd" d="M12.2581 8.02432C11.7926 7.94447 11.3138 8.03195 10.9066 8.27126C10.4994 8.51058 10.1901 8.88629 10.0333 9.33184C9.85006 9.85283 9.27914 10.1266 8.75815 9.94333C8.23716 9.76006 7.96339 9.18915 8.14666 8.66816C8.46013 7.77705 9.07886 7.02563 9.89327 6.547C10.7077 6.06837 11.6652 5.89341 12.5962 6.05311C13.5273 6.2128 14.3717 6.69686 14.9801 7.41953C15.5883 8.14205 15.9213 9.05648 15.92 10.0009C15.9195 11.5313 14.7849 12.5419 13.9747 13.082C13.5391 13.3725 13.1105 13.586 12.7949 13.7263C12.6356 13.7971 12.5015 13.8508 12.4049 13.8876C12.3565 13.906 12.3173 13.9203 12.2887 13.9305L12.254 13.9427L12.2429 13.9464L12.239 13.9478L12.2375 13.9483C12.2372 13.9484 12.2362 13.9487 11.92 13L12.2362 13.9487C11.7123 14.1233 11.146 13.8402 10.9713 13.3162C10.7968 12.7926 11.0794 12.2267 11.6027 12.0517L11.6014 12.0521C11.6015 12.0521 11.6016 12.052 11.6027 12.0517L11.6187 12.0461C11.6341 12.0406 11.6593 12.0314 11.6929 12.0186C11.7603 11.9929 11.8606 11.9529 11.9826 11.8987C12.2294 11.789 12.5509 11.6275 12.8653 11.4179C13.5549 10.9582 13.92 10.4691 13.92 10L13.92 9.99851C13.9207 9.52619 13.7542 9.06886 13.45 8.70753C13.1459 8.34619 12.7236 8.10417 12.2581 8.02432Z" fill="currentColor" />
            <path fill-rule="evenodd" clip-rule="evenodd" d="M12 15C12.5523 15 13 15.4477 13 16V16.5C13 17.0523 12.5523 17.5 12 17.5C11.4477 17.5 11 17.0523 11 16.5V16C11 15.4477 11.4477 15 12 15Z" fill="currentColor" />
        </symbol>

        <symbol id="check">
            <path d="M1.5 7.5L5 11L13 2" stroke="currentColor" stroke-width="3" stroke-linecap="round" stroke-linejoin="round" />
        </symbol>
    </defs>
</svg>